<svg xmlns="http://www.w3.org/2000/svg" width="100" height="129" fill="none" viewBox="0 0 100 129"><circle cx="50" cy="50" r="50" fill="#AB71FF"/><g filter="url(#filter0_d_710_89)"><rect width="53.878" height="94" x="24" y="27" fill="#fff" rx="4"/><rect width="47" height="71.073" x="27.439" y="35.024" fill="#D9BFFF" rx="4"/><circle cx="50.938" cy="113.548" r="4.012" fill="#C4C4C4"/><rect width="14.902" height="2.293" x="43.487" y="30.439" fill="#C4C4C4" rx="1.146"/><path fill="#fff" d="M44.4773 93.4034V87.7784H45.4318V93.4034H44.4773ZM42.142 91.0682V90.1136H47.767V91.0682H42.142Z"/><path fill="#fff" d="M60.1591 58.8011V56.9261H60.4773V58.8011H60.1591ZM59.3807 58.0227V57.7045H61.2557V58.0227H59.3807Z"/><path fill="#fff" d="M61.1591 94.8011V92.9261H61.4773V94.8011H61.1591ZM60.3807 94.0227V93.7045H62.2557V94.0227H60.3807Z"/><path fill="#fff" d="M44.7955 72.0057V62.6307H46.3864V72.0057H44.7955ZM40.9034 68.1136V66.5227H50.2784V68.1136H40.9034Z"/><path fill="#fff" d="M34.3182 78.6023V74.8523H34.9545V78.6023H34.3182ZM32.7614 77.0455V76.4091H36.5114V77.0455H32.7614Z"/><path fill="#fff" d="M59.0568 81.304V74.7415H60.1705V81.304H59.0568ZM56.3324 78.5795V77.4659H62.8949V78.5795H56.3324Z"/><path fill="#fff" d="M41.0568 51.304V44.7415H42.1705V51.304H41.0568ZM38.3324 48.5795V47.4659H44.8949V48.5795H38.3324Z"/><path fill="#fff" d="M58.4773 43.4034V37.7784H59.4318V43.4034H58.4773ZM56.142 41.0682V40.1136H61.767V41.0682H56.142Z"/></g><defs><filter id="filter0_d_710_89" width="65.878" height="106" x="18" y="23" color-interpolation-filters="sRGB" filterUnits="userSpaceOnUse"><feFlood flood-opacity="0" result="BackgroundImageFix"/><feColorMatrix in="SourceAlpha" result="hardAlpha" type="matrix" values="0 0 0 0 0 0 0 0 0 0 0 0 0 0 0 0 0 0 127 0"/><feOffset dy="2"/><feGaussianBlur stdDeviation="3"/><feComposite in2="hardAlpha" operator="out"/><feColorMatrix type="matrix" values="0 0 0 0 0 0 0 0 0 0 0 0 0 0 0 0 0 0 0.1 0"/><feBlend in2="BackgroundImageFix" mode="normal" result="effect1_dropShadow_710_89"/><feBlend in="SourceGraphic" in2="effect1_dropShadow_710_89" mode="normal" result="shape"/></filter></defs></svg>