<svg xmlns="http://www.w3.org/2000/svg" id="mermaid-1577127125844" width="100%" height="100%" style="max-width:850px" viewBox="-50 -10 850 616"><style>#mermaid-1577127125844 .actor{stroke:#ccf;fill:#ececff}#mermaid-1577127125844 text.actor{fill:#000;stroke:none}#mermaid-1577127125844 .actor-line{stroke:gray}#mermaid-1577127125844 .messageLine0{marker-end:&quot;url(#arrowhead)&quot;;stroke-width:1.5;stroke-dasharray:&quot;2 2&quot;;stroke:#333}#mermaid-1577127125844 #arrowhead{fill:#333}#mermaid-1577127125844 #crosshead path{fill:#333!important;stroke:#333!important}#mermaid-1577127125844 .messageText{fill:#333;stroke:none}#mermaid-1577127125844 .labelBox{stroke:#ccf;fill:#ececff}#mermaid-1577127125844 .labelText,#mermaid-1577127125844 .loopText{fill:#000;stroke:none}#mermaid-1577127125844 .loopLine{stroke-width:2;stroke-dasharray:&quot;2 2&quot;;marker-end:&quot;url(#arrowhead)&quot;;stroke:#ccf}</style><style>#mermaid-1577127125844{color:#000;font:400 16px &quot;Times New Roman&quot;}</style><g><line id="actor0" x1="75" x2="75" y1="5" y2="605" stroke="#999" stroke-width=".5" class="actor-line"/><rect width="150" height="65" x="0" y="0" fill="#eaeaea" stroke="#666" class="actor" rx="3" ry="3"/><text x="75" y="32.5" alignment-baseline="central" class="actor" dominant-baseline="central" style="text-anchor:middle"><tspan x="75" dy="0">User</tspan></text></g><g><line id="actor1" x1="275" x2="275" y1="5" y2="605" stroke="#999" stroke-width=".5" class="actor-line"/><rect width="150" height="65" x="200" y="0" fill="#eaeaea" stroke="#666" class="actor" rx="3" ry="3"/><text x="275" y="32.5" alignment-baseline="central" class="actor" dominant-baseline="central" style="text-anchor:middle"><tspan x="275" dy="0">Relay Phone Number</tspan></text></g><g><line id="actor2" x1="475" x2="475" y1="5" y2="605" stroke="#999" stroke-width=".5" class="actor-line"/><rect width="150" height="65" x="400" y="0" fill="#eaeaea" stroke="#666" class="actor" rx="3" ry="3"/><text x="475" y="32.5" alignment-baseline="central" class="actor" dominant-baseline="central" style="text-anchor:middle"><tspan x="475" dy="0">Proxy Number</tspan></text></g><g><line id="actor3" x1="675" x2="675" y1="5" y2="605" stroke="#999" stroke-width=".5" class="actor-line"/><rect width="150" height="65" x="600" y="0" fill="#eaeaea" stroke="#666" class="actor" rx="3" ry="3"/><text x="675" y="32.5" alignment-baseline="central" class="actor" dominant-baseline="central" style="text-anchor:middle"><tspan x="675" dy="0">3rd Party</tspan></text></g><defs><marker id="arrowhead" markerHeight="4" markerWidth="6" orient="auto" refX="5" refY="2"><path d="M 0,0 V 4 L6,2 Z"/></marker></defs><defs><marker id="crosshead" markerHeight="8" markerWidth="15" orient="auto" refX="16" refY="4"><path fill="#000" stroke="#000" stroke-width="1" d="M 9,2 V 6 L16,4 Z" style="stroke-dasharray:0,0"/><path fill="none" stroke="#000" stroke-width="1" d="M 0,1 L 6,7 M 6,1 L 0,7" style="stroke-dasharray:0,0"/></marker></defs><g><text x="175" y="93" class="messageText" style="text-anchor:middle">TXT {minutes}</text><line x1="75" x2="275" y1="100" y2="100" stroke="#000" stroke-width="2" marker-end="url(#arrowhead)" class="messageLine0" style="fill:none"/></g><g><text x="375" y="128" class="messageText" style="text-anchor:middle">Creates {minutes} session</text><line x1="275" x2="475" y1="135" y2="135" stroke="#000" stroke-width="2" marker-end="url(#arrowhead)" class="messageLine0" style="fill:none"/></g><g><text x="175" y="163" class="messageText" style="text-anchor:middle">TXT {proxy number}</text><line x1="275" x2="75" y1="170" y2="170" stroke="#000" stroke-width="2" marker-end="url(#arrowhead)" class="messageLine0" style="fill:none"/></g><g><text x="375" y="198" class="messageText" style="text-anchor:middle">give {proxy number} as phone number</text><line x1="75" x2="675" y1="205" y2="205" stroke="#000" stroke-width="2" marker-end="url(#arrowhead)" class="messageLine0" style="fill:none"/></g><g><text x="575" y="258" class="messageText" style="text-anchor:middle">TXT</text><line x1="675" x2="475" y1="265" y2="265" stroke="#000" stroke-width="2" marker-end="url(#arrowhead)" class="messageLine0" style="fill:none"/></g><g><text x="275" y="293" class="messageText" style="text-anchor:middle">TXT</text><line x1="475" x2="75" y1="300" y2="300" stroke="#000" stroke-width="2" marker-end="url(#arrowhead)" class="messageLine0" style="fill:none"/></g><g><text x="275" y="328" class="messageText" style="text-anchor:middle">TXT</text><line x1="75" x2="475" y1="335" y2="335" stroke="#000" stroke-width="2" marker-end="url(#arrowhead)" class="messageLine0" style="fill:none"/></g><g><text x="575" y="363" class="messageText" style="text-anchor:middle">TXT</text><line x1="475" x2="675" y1="370" y2="370" stroke="#000" stroke-width="2" marker-end="url(#arrowhead)" class="messageLine0" style="fill:none"/></g><g><line x1="65" x2="685" y1="215" y2="215" class="loopLine"/><line x1="685" x2="685" y1="215" y2="380" class="loopLine"/><line x1="65" x2="685" y1="380" y2="380" class="loopLine"/><line x1="65" x2="65" y1="215" y2="380" class="loopLine"/><polygon points="65 215 115 215 115 228 106.6 235 65 235" class="labelBox"/><text x="72.5" y="230" fill="#000" class="labelText"><tspan x="72.5" fill="#000">loop</tspan></text><text x="375" y="230" fill="#000" class="loopText" style="text-anchor:middle"><tspan x="375" fill="#000">[ proxied TXT conversation ]</tspan></text></g><g><text x="275" y="433" class="messageText" style="text-anchor:middle">TXT &quot;stop&quot;</text><line x1="75" x2="475" y1="440" y2="440" stroke="#000" stroke-width="2" marker-end="url(#arrowhead)" class="messageLine0" style="fill:none"/></g><g><line x1="65" x2="485" y1="390" y2="390" class="loopLine"/><line x1="485" x2="485" y1="390" y2="450" class="loopLine"/><line x1="65" x2="485" y1="450" y2="450" class="loopLine"/><line x1="65" x2="65" y1="390" y2="450" class="loopLine"/><polygon points="65 390 115 390 115 403 106.6 410 65 410" class="labelBox"/><text x="72.5" y="405" fill="#000" class="labelText"><tspan x="72.5" fill="#000">opt</tspan></text><text x="275" y="405" fill="#000" class="loopText" style="text-anchor:middle"><tspan x="275" fill="#000">[ TODO: manual stop ]</tspan></text></g><g><text x="175" y="503" class="messageText" style="text-anchor:middle">TXT &quot;reset&quot;</text><line x1="75" x2="275" y1="510" y2="510" stroke="#000" stroke-width="2" marker-end="url(#arrowhead)" class="messageLine0" style="fill:none"/></g><g><line x1="65" x2="285" y1="460" y2="460" class="loopLine"/><line x1="285" x2="285" y1="460" y2="520" class="loopLine"/><line x1="65" x2="285" y1="520" y2="520" class="loopLine"/><line x1="65" x2="65" y1="460" y2="520" class="loopLine"/><polygon points="65 460 115 460 115 473 106.6 480 65 480" class="labelBox"/><text x="72.5" y="475" fill="#000" class="labelText"><tspan x="72.5" fill="#000">opt</tspan></text><text x="175" y="475" fill="#000" class="loopText" style="text-anchor:middle"><tspan x="175" fill="#000">[ manual reset ]</tspan></text></g><g><rect width="150" height="65" x="0" y="540" fill="#eaeaea" stroke="#666" class="actor" rx="3" ry="3"/><text x="75" y="572.5" alignment-baseline="central" class="actor" dominant-baseline="central" style="text-anchor:middle"><tspan x="75" dy="0">User</tspan></text></g><g><rect width="150" height="65" x="200" y="540" fill="#eaeaea" stroke="#666" class="actor" rx="3" ry="3"/><text x="275" y="572.5" alignment-baseline="central" class="actor" dominant-baseline="central" style="text-anchor:middle"><tspan x="275" dy="0">Relay Phone Number</tspan></text></g><g><rect width="150" height="65" x="400" y="540" fill="#eaeaea" stroke="#666" class="actor" rx="3" ry="3"/><text x="475" y="572.5" alignment-baseline="central" class="actor" dominant-baseline="central" style="text-anchor:middle"><tspan x="475" dy="0">Proxy Number</tspan></text></g><g><rect width="150" height="65" x="600" y="540" fill="#eaeaea" stroke="#666" class="actor" rx="3" ry="3"/><text x="675" y="572.5" alignment-baseline="central" class="actor" dominant-baseline="central" style="text-anchor:middle"><tspan x="675" dy="0">3rd Party</tspan></text></g></svg>