<svg xmlns="http://www.w3.org/2000/svg" width="50" height="50" fill="none" viewBox="0 0 50 50"><rect width="50" height="50" fill="#F5F7F9" rx="4"/><rect width=".959" height="2.636" x="25.306" y="34.116" fill="#C4C4C4"/><rect width="1.917" height="5.992" x="24.827" y="36.992" fill="#ED6EFF"/><path fill="#ED6EFF" fill-rule="evenodd" d="M24.8267 42.9843C24.8267 45.764 27.0801 48.0174 29.8598 48.0174C32.6395 48.0174 34.8929 45.764 34.893 42.9843H32.9756C32.9755 44.7051 31.5806 46.1 29.8598 46.1C28.1391 46.1 26.7441 44.7051 26.7441 42.9843H24.8267Z" clip-rule="evenodd"/><path fill="#ED6EFF" d="M35.143 33.8767L37.05 31.7516L25.9654 1.99999L15 31.7516L16.907 33.8767L19.0525 31.7516L21.5554 33.8767L23.7008 31.7516L25.9654 33.8767L28.3492 31.7516L30.4946 33.8767L32.9976 31.7516L35.143 33.8767Z"/><path fill="#995BFF" d="M30.5017 33.8767L32.9756 31.6482L26.025 1.99999L28.3812 31.6482L30.5017 33.8767Z"/><path fill="#995BFF" d="M21.5484 33.8767L19.0745 31.6482L26.025 1.99999L23.6689 31.6482L21.5484 33.8767Z"/></svg>