<svg xmlns="http://www.w3.org/2000/svg" xmlns:svg="http://www.w3.org/2000/svg" id="svg4" width="300" height="170.831" fill="none" version="1.1" viewBox="0 0 300 170.831"><rect id="rect2" width="300" height="154.054" x="0" y="4" fill="#f5f7f9" rx="8"/><g id="g1122" transform="translate(-47.362299,79.829773)"><path id="path2" fill="#ef6fff" d="m 215.7603,20.250225 c -22.336,-12.9443 -43.572,-5.3933 -51.398,0 6.7684,-17.0265 32.044,-51.08 79,-51.08 46.956,0 72.232,34.0535 79,51.08 -21.828,-12.9443 -43.995,-5.3933 -52.349,0 -22.59,-12.6905 -45.581,-5.2875 -54.253,0 z"/><path id="path4" fill="#9a5bff" d="m 270.0133,20.251225 c -23.161,-12.3739 -40.928,-5.394 -54.253,0 0,-30.7759 18.295,-46.7713 27.285,-51.0808 19.544,9.8381 26.122,38.047 26.968,51.0808 z"/><rect id="rect6" width="2.538" height="46.956" x="241.141" y="14.223" fill="#ccc"/><rect id="rect8" width="5.076" height="15.864" x="239.872" y="61.813" fill="#ef6fff"/><path id="path10" fill="#ef6fff" fill-rule="evenodd" d="m 239.8723,77.676225 c 0,0 0,0 0,0 0,7.36 5.966,13.325 13.325,13.325 7.36,0 13.326,-5.965 13.326,-13.325 0,0 0,0 0,0 h -5.077 c 0,0 0,0 0,0 0,4.556 -3.693,8.249 -8.249,8.249 -4.555,0 -8.249,-3.693 -8.249,-8.249 0,0 0,0 0,0 z" clip-rule="evenodd"/><line id="line12" x1="168.362" x2="168.362" y1="-32.83" y2="-14.83" stroke="#0060df" stroke-linecap="round" stroke-width="2"/><line id="line14" x1="156.362" x2="156.362" y1="16.17" y2="52.17" stroke="#0060df" stroke-linecap="round" stroke-width="2"/><line id="line16" x1="128.362" x2="128.362" y1="17.17" y2="35.17" stroke="#0060df" stroke-linecap="round" stroke-width="2"/><line id="line18" x1="179.362" x2="179.362" y1="-49.83" y2="-31.83" stroke="#0060df" stroke-linecap="round" stroke-width="2"/><line id="line20" x1="156.362" x2="156.362" y1="-58.83" y2="-40.83" stroke="#0060df" stroke-linecap="round" stroke-width="2"/><line id="line22" x1="306.362" x2="306.362" y1="-28.83" y2="-10.83" stroke="#0060df" stroke-linecap="round" stroke-width="2"/><line id="line24" x1="199.362" x2="199.362" y1="-42.83" y2="-24.83" stroke="#0060df" stroke-linecap="round" stroke-width="2"/><line id="line26" x1="105.362" x2="105.362" y1="14.17" y2="32.17" stroke="#0060df" stroke-linecap="round" stroke-width="2"/><line id="line28" x1="142.362" x2="142.362" y1="42.17" y2="60.17" stroke="#0060df" stroke-linecap="round" stroke-width="2"/><line id="line30" x1="156.362" x2="156.362" y1="-29.83" y2="-11.83" stroke="#0060df" stroke-linecap="round" stroke-width="2"/><line id="line32" x1="294.362" x2="294.362" y1="-53.83" y2="-35.83" stroke="#0060df" stroke-linecap="round" stroke-width="2"/><line id="line34" x1="207.362" x2="207.362" y1="-68.83" y2="-50.83" stroke="#0060df" stroke-linecap="round" stroke-width="2"/><line id="line36" x1="96.362" x2="96.362" y1="-68.83" y2="-25.83" stroke="#0060df" stroke-linecap="round" stroke-width="2"/><line id="line38" x1="316.362" x2="316.362" y1="-60.83" y2="-42.83" stroke="#0060df" stroke-linecap="round" stroke-width="2"/><line id="line40" x1="113.362" x2="113.362" y1="-11.83" y2="6.17" stroke="#0060df" stroke-linecap="round" stroke-width="2"/><line id="line42" x1="83.362" x2="83.362" y1="-4.83" y2="13.17" stroke="#0060df" stroke-linecap="round" stroke-width="2"/><line id="line44" x1="294.362" x2="294.362" y1="-78.83" y2="-60.83" stroke="#0060df" stroke-linecap="round" stroke-width="2"/><line id="line46" x1="281.362" x2="281.362" y1="-63.83" y2="-45.83" stroke="#0060df" stroke-linecap="round" stroke-width="2"/><line id="line48" x1="271.362" x2="271.362" y1="-52.83" y2="-34.83" stroke="#0060df" stroke-linecap="round" stroke-width="2"/><line id="line50" x1="249.362" x2="249.362" y1="-67.83" y2="-41.83" stroke="#0060df" stroke-linecap="round" stroke-width="2"/><line id="line52" x1="113.362" x2="113.362" y1="-51.83" y2="-25.83" stroke="#0060df" stroke-linecap="round" stroke-width="2"/><line id="line54" x1="105.362" x2="105.362" y1="-39.83" y2="-13.83" stroke="#0060df" stroke-linecap="round" stroke-width="2"/><line id="line56" x1="83.362" x2="83.362" y1="-39.83" y2="-13.83" stroke="#0060df" stroke-linecap="round" stroke-width="2"/><line id="line58" x1="73.362" x2="73.362" y1="-24.83" y2="24.17" stroke="#0060df" stroke-linecap="round" stroke-width="2"/><line id="line60" x1="216.362" x2="216.362" y1="-78.83" y2="-60.83" stroke="#0060df" stroke-linecap="round" stroke-width="2"/><line id="line62" x1="227.362" x2="227.362" y1="-52.83" y2="-34.83" stroke="#0060df" stroke-linecap="round" stroke-width="2"/><line id="line64" x1="190.362" x2="190.362" y1="-29.83" y2="-20.83" stroke="#0060df" stroke-linecap="round" stroke-width="2"/><line id="line66" x1="190.362" x2="190.362" y1="-78.83" y2="-60.83" stroke="#0060df" stroke-linecap="round" stroke-width="2"/><line id="line68" x1="128.362" x2="128.362" y1="-62.83" y2="-44.83" stroke="#0060df" stroke-linecap="round" stroke-width="2"/><line id="line70" x1="96.362" x2="96.362" y1="27.17" y2="36.17" stroke="#0060df" stroke-linecap="round" stroke-width="2"/><line id="line72" x1="113.362" x2="113.362" y1="39.17" y2="48.17" stroke="#0060df" stroke-linecap="round" stroke-width="2"/><line id="line74" x1="128.362" x2="128.362" y1="-22.83" y2="-13.83" stroke="#0060df" stroke-linecap="round" stroke-width="2"/><line id="line76" x1="142.362" x2="142.362" y1="-48.83" y2="-30.83" stroke="#0060df" stroke-linecap="round" stroke-width="2"/><line id="line78" x1="105.362" x2="105.362" y1="43.17" y2="61.17" stroke="#0060df" stroke-linecap="round" stroke-width="2"/><line id="line80" x1="190.362" x2="190.362" y1="-53.83" y2="-44.83" stroke="#0060df" stroke-linecap="round" stroke-width="2"/><line id="line82" x1="142.362" x2="142.362" y1="-2.83" y2="11.17" stroke="#0060df" stroke-linecap="round" stroke-width="2"/><line id="line84" x1="83.362" x2="83.362" y1="23.17" y2="41.17" stroke="#0060df" stroke-linecap="round" stroke-width="2"/><line id="line86" x1="128.362" x2="128.362" y1="-.83" y2="8.17" stroke="#0060df" stroke-linecap="round" stroke-width="2"/><line id="line88" x1="142.362" x2="142.362" y1="-70.83" y2="-61.83" stroke="#0060df" stroke-linecap="round" stroke-width="2"/><line id="line90" x1="179.362" x2="179.362" y1="-22.83" y2="-13.83" stroke="#0060df" stroke-linecap="round" stroke-width="2"/><line id="line92" x1="96.362" x2="96.362" y1="3.17" y2="12.17" stroke="#0060df" stroke-linecap="round" stroke-width="2"/><line id="line94" x1="128.362" x2="128.362" y1="-37.83" y2="-28.83" stroke="#0060df" stroke-linecap="round" stroke-width="2"/><line id="line96" x1="156.362" x2="156.362" y1="-1.83" y2="7.17" stroke="#0060df" stroke-linecap="round" stroke-width="2"/><line id="line98" x1="168.362" x2="168.362" y1="-58.83" y2="-49.83" stroke="#0060df" stroke-linecap="round" stroke-width="2"/><line id="line100" x1="142.362" x2="142.362" y1="-23.83" y2="-14.83" stroke="#0060df" stroke-linecap="round" stroke-width="2"/><line id="line102" x1="96.362" x2="96.362" y1="-14.83" y2="-5.83" stroke="#0060df" stroke-linecap="round" stroke-width="2"/><line id="line104" x1="199.362" x2="199.362" y1="-58.83" y2="-49.83" stroke="#0060df" stroke-linecap="round" stroke-width="2"/><line id="line106" x1="294.362" x2="294.362" y1="-29.83" y2="-20.83" stroke="#0060df" stroke-linecap="round" stroke-width="2"/><line id="line108" x1="179.362" x2="179.362" y1="-69.83" y2="-60.83" stroke="#0060df" stroke-linecap="round" stroke-width="2"/><line id="line110" x1="271.362" x2="271.362" y1="-78.83" y2="-69.83" stroke="#0060df" stroke-linecap="round" stroke-width="2"/><line id="line112" x1="306.362" x2="306.362" y1="-64.83" y2="-55.83" stroke="#0060df" stroke-linecap="round" stroke-width="2"/><line id="line114" x1="105.362" x2="105.362" y1="-1.83" y2="7.17" stroke="#0060df" stroke-linecap="round" stroke-width="2"/><line id="line116" x1="105.362" x2="105.362" y1="-62.83" y2="-53.83" stroke="#0060df" stroke-linecap="round" stroke-width="2"/><line id="line118" x1="306.362" x2="306.362" y1="-43.83" y2="-34.83" stroke="#0060df" stroke-linecap="round" stroke-width="2"/><line id="line120" x1="142.362" x2="142.362" y1="26.17" y2="35.17" stroke="#0060df" stroke-linecap="round" stroke-width="2"/><line id="line122" x1="260.362" x2="260.362" y1="-51.83" y2="-42.83" stroke="#0060df" stroke-linecap="round" stroke-width="2"/><line id="line124" x1="260.362" x2="260.362" y1="-67.83" y2="-58.83" stroke="#0060df" stroke-linecap="round" stroke-width="2"/><line id="line126" x1="239.362" x2="239.362" y1="-58.83" y2="-49.83" stroke="#0060df" stroke-linecap="round" stroke-width="2"/><line id="line128" x1="207.362" x2="207.362" y1="-42.83" y2="-33.83" stroke="#0060df" stroke-linecap="round" stroke-width="2"/><line id="line130" x1="239.362" x2="239.362" y1="-43.83" y2="-37.83" stroke="#0060df" stroke-linecap="round" stroke-width="2"/><line id="line132" x1="128.362" x2="128.362" y1="46.17" y2="52.17" stroke="#0060df" stroke-linecap="round" stroke-width="2"/><line id="line134" x1="128.362" x2="128.362" y1="59.17" y2="73.17" stroke="#0060df" stroke-linecap="round" stroke-width="2"/><line id="line136" x1="156.362" x2="156.362" y1="59.17" y2="65.17" stroke="#0060df" stroke-linecap="round" stroke-width="2"/><line id="line138" x1="239.362" x2="239.362" y1="-72.83" y2="-66.83" stroke="#0060df" stroke-linecap="round" stroke-width="2"/><line id="line140" x1="227.362" x2="227.362" y1="-69.83" y2="-60.83" stroke="#0060df" stroke-linecap="round" stroke-width="2"/><line id="line142" x1="113.362" x2="113.362" y1="14.17" y2="30.17" stroke="#0060df" stroke-linecap="round" stroke-width="2"/><line id="line144" x1="216.362" x2="216.362" y1="-51.83" y2="-42.83" stroke="#0060df" stroke-linecap="round" stroke-width="2"/><line id="line146" x1="281.362" x2="281.362" y1="-37.83" y2="-28.83" stroke="#0060df" stroke-linecap="round" stroke-width="2"/></g></svg>