<svg xmlns="http://www.w3.org/2000/svg" width="14" height="48" fill="none" viewBox="0 0 14 48"><rect width=".982" height="2.699" x="3.681" y="32.88" fill="#9A5BFF"/><rect width="1.963" height="6.134" x="3.19" y="35.825" fill="#EF6FFF"/><path fill="#EF6FFF" fill-rule="evenodd" d="M3.18994 41.9591C3.18994 41.9591 3.18994 41.9591 3.18994 41.9592C3.18994 44.805 5.49697 47.112 8.34282 47.112C11.1887 47.112 13.4957 44.805 13.4957 41.9592C13.4957 41.9591 13.4957 41.9591 13.4957 41.9591H11.5327C11.5326 43.7208 10.1045 45.149 8.34278 45.149C6.58106 45.149 5.1529 43.7208 5.1529 41.9591H3.18994Z" clip-rule="evenodd"/><path fill="#EF6FFF" d="M0 32.6349L2.17637 27.4718H6.04548L8.34276 32.6349L6.40821 32.0504L4.11093 32.6349L2.17637 32.0504L0 32.6349Z"/><path fill="#EF6FFF" d="M6.04548 25.1338H2.17637L4.11093 0L6.04548 25.1338Z"/><rect width="5.889" height="1.472" x="1.227" y="25.519" fill="#9A5BFF"/></svg>