<svg xmlns="http://www.w3.org/2000/svg" width="104" height="76" fill="none" viewBox="0 0 104 76"><circle cx="52" cy="37" r="27" fill="#ECECEC" opacity=".4"/><path fill="#EF6FFF" d="M33.8313 33.6225C19.1293 25.102 5.15127 30.0723 0 33.6225C4.45515 22.415 21.0924 0 52 0C82.9076 0 99.5448 22.415 104 33.6225C89.6321 25.102 75.0415 30.0723 69.5422 33.6225C54.6731 25.2691 39.5395 30.1419 33.8313 33.6225Z"/><path fill="#9A5BFF" d="M69.5419 33.6226C54.2969 25.478 42.6021 30.0724 33.8311 33.6226C33.8311 13.3653 45.8739 2.8367 51.7909 0.00012207C64.6552 6.47581 68.985 25.0437 69.5419 33.6226Z"/><rect width="2" height="26" x="50.538" y="29.655" fill="#CCC"/><rect width="3.341" height="10.442" x="49.703" y="56" fill="#EF6FFF"/><path fill="#EF6FFF" fill-rule="evenodd" d="M49.7021 66.4418C49.7022 71.2859 53.6291 75.2129 58.4732 75.2129C63.3174 75.2129 67.2443 71.2859 67.2443 66.4418L63.9029 66.4418C63.9029 69.4405 61.4719 71.8715 58.4731 71.8715C55.4744 71.8715 53.0434 69.4405 53.0434 66.4418L49.7021 66.4418Z" clip-rule="evenodd"/></svg>